# xmcd
# 
# Track frame offsets:
#     150
#     21532
#     41047
# 
# Disc length: 793
# 
# Revision: 2
# Processed by: cddbd v1.5.2PL0 Copyright (c) Steve Scherf et al.
# Submitted via: BonkEnc v1.0
# 
DISCID=23031703
DTITLE=田村ゆかり - 星空のSpica
DYEAR=2007
DGENRE=newage
TTITLE0=星空のSpica
TTITLE1=Sensitive Venus
TTITLE2=Melody
EXTD=YEAR: 2007/05/09
EXTT0=
EXTT1=
EXTT2=
PLAYORDER=
